<svg xmlns="http://www.w3.org/2000/svg" width="512" height="512" viewBox="0 0 512 512">
  <rect width="512" height="512" rx="100" fill="#3b82f6"/>
  <circle cx="256" cy="256" r="140" fill="#ffffff" opacity="0.2"/>
  <path d="M256 120C180.89 120 120 180.89 120 256s60.89 136 136 136 136-60.89 136-136-60.89-136-136-136zm0 240c-57.44 0-104-46.56-104-104s46.56-104 104-104 104 46.56 104 104-46.56 104-104 104z" fill="#ffffff"/>
  <path d="M256 180c-41.98 0-76 34.02-76 76s34.02 76 76 76 76-34.02 76-76-34.02-76-76-76zm0 120c-24.3 0-44-19.7-44-44s19.7-44 44-44 44 19.7 44 44-19.7 44-44 44z" fill="#ffffff"/>
  <circle cx="256" cy="256" r="20" fill="#ffffff"/>
</svg>